<svg width="25" height="25" viewBox="0 0 25 25" fill="none" xmlns="http://www.w3.org/2000/svg">
<path d="M24.6282 5.14208C23.7584 5.52749 22.824 5.78791 21.8417 5.90562C22.8552 5.29915 23.6135 4.34465 23.975 3.2202C23.0228 3.78582 21.9806 4.18395 20.8938 4.39729C20.1629 3.61694 19.1949 3.09971 18.14 2.9259C17.085 2.7521 16.0022 2.93144 15.0597 3.43609C14.1171 3.94074 13.3675 4.74245 12.9273 5.71677C12.487 6.69108 12.3808 7.78348 12.625 8.82437C10.6955 8.72749 8.80798 8.22598 7.08485 7.35239C5.36172 6.47881 3.84153 5.25266 2.62295 3.75353C2.20628 4.47229 1.9667 5.30562 1.9667 6.19312C1.96623 6.99207 2.16298 7.77879 2.53949 8.48346C2.916 9.18814 3.46062 9.78899 4.12503 10.2327C3.35449 10.2082 2.60094 9.99998 1.92712 9.62541V9.68791C1.92704 10.8085 2.31465 11.8946 3.02418 12.7619C3.73371 13.6292 4.72146 14.2243 5.81982 14.4462C5.10502 14.6397 4.35559 14.6682 3.62816 14.5296C3.93805 15.4938 4.54169 16.3369 5.35458 16.941C6.16747 17.545 7.1489 17.8798 8.16149 17.8983C6.44257 19.2477 4.31971 19.9797 2.13441 19.9765C1.7473 19.9766 1.36053 19.954 0.976074 19.9087C3.19428 21.335 5.77643 22.0919 8.41357 22.089C17.3407 22.089 22.2209 14.6952 22.2209 8.2827C22.2209 8.07437 22.2157 7.86395 22.2063 7.65562C23.1555 6.96913 23.9749 6.11905 24.6261 5.1452L24.6282 5.14208V5.14208Z" fill="white"/>
</svg>
