<svg width="25" height="25" viewBox="0 0 25 25" fill="none" xmlns="http://www.w3.org/2000/svg">
<path d="M22.5 12.625C22.5 11.375 21.5 10.375 20.25 10.5C19.75 10.5 19.125 10.75 18.75 11.125C17 10 15 9.25 12.875 9.25L13.875 4.5L17.125 5.25C17.125 6.125 17.875 6.75 18.75 6.75C19.625 6.75 20.25 6 20.25 5.125C20.25 4.25 19.5 3.625 18.625 3.625C18 3.625 17.5 4 17.25 4.5L13.75 3.625H13.5C13.375 3.625 13.375 3.75 13.375 3.875L12.125 9.25C10 9.25 8 9.875 6.25 11.125C5.375 10.25 4 10.25 3.125 11.125C2.25 12 2.25 13.375 3.125 14.25C3.25 14.375 3.5 14.625 3.75 14.625V15.25C3.75 18.625 7.625 21.375 12.5 21.375C17.375 21.375 21.25 18.625 21.25 15.25V14.625C22 14.25 22.5 13.5 22.5 12.625ZM7.5 14.25C7.5 13.375 8.25 12.75 9 12.75C9.875 12.75 10.5 13.5 10.5 14.25C10.5 15 9.75 15.75 9 15.75C8.125 15.75 7.5 15.125 7.5 14.25ZM16.25 18.375C15.125 19.125 13.875 19.625 12.5 19.5C11.125 19.5 9.875 19.125 8.75 18.375C8.625 18.25 8.625 18 8.75 17.75C8.875 17.625 9.125 17.625 9.25 17.75C10.125 18.375 11.25 18.75 12.375 18.625C13.5 18.75 14.625 18.375 15.5 17.75C15.625 17.625 15.875 17.625 16.125 17.75C16.375 17.875 16.375 18.125 16.25 18.375ZM15.875 15.75C15 15.75 14.375 15 14.375 14.25C14.375 13.5 15.125 12.75 15.875 12.75C16.75 12.75 17.375 13.5 17.375 14.25C17.5 15.125 16.75 15.75 15.875 15.75Z" fill="white"/>
</svg>
