<svg width="25" height="25" viewBox="0 0 25 25" fill="none" xmlns="http://www.w3.org/2000/svg">
<path d="M6.514 16.9077C11.1698 18.7247 15.1318 19.0786 19.6217 16.2504C19.5888 16.2998 18.7006 17.6156 16.3651 18.2899C16.8585 18.9643 17.5328 19.7373 17.5328 19.7373C19.0296 19.7373 20.4934 19.3096 21.7598 18.4873C22.7467 17.8293 23.3058 16.6945 23.1907 15.5103C22.9933 13.4873 22.5163 11.5136 21.7763 9.62217C20.8388 7.15508 18.5855 5.44453 15.9703 5.1978C15.7401 5.18135 15.5756 5.18135 15.4769 5.18135L15.2138 5.44448C18.2237 6.29976 19.7204 7.63198 19.7533 7.68135C15.1315 5.3458 9.67103 5.31294 5.01639 7.58267C5.01639 7.58267 6.49666 6.11885 9.76966 5.3458L9.5723 5.14844C9.22689 5.14844 8.89793 5.18135 8.55257 5.23066C6.1348 5.64185 4.1118 7.30303 3.24007 9.58921C2.48348 11.5629 1.99007 13.6353 1.80916 15.7405C1.71048 16.8589 2.2368 17.9609 3.15785 18.6024C4.37494 19.4083 5.8223 19.8359 7.28612 19.8359C7.28612 19.8359 7.87821 19.0629 8.47035 18.3721C6.24994 17.7142 5.34535 16.3984 5.32889 16.3491L5.74676 16.5625C5.99657 16.6901 6.25267 16.8057 6.514 16.9077ZM9.09535 15.4774C8.02625 15.4445 7.18744 14.5399 7.22035 13.4543C7.25326 12.4346 8.07562 11.6123 9.09535 11.5793C10.1644 11.6123 11.0033 12.5168 10.9703 13.6024C10.921 14.6222 10.1151 15.4445 9.09535 15.4774ZM15.8058 15.4774C14.7368 15.4445 13.8979 14.5399 13.9308 13.4543C13.9638 12.4346 14.7861 11.6123 15.8058 11.5793C16.8749 11.6123 17.7138 12.5168 17.6808 13.6024C17.648 14.6222 16.8256 15.4445 15.8058 15.4774Z" fill="white"/>
</svg>
