<svg width="24" height="24" viewBox="0 0 24 24" fill="none" xmlns="http://www.w3.org/2000/svg">
<path d="M23.7446 13.8515L21.5482 4.41998C21.3923 3.79626 20.9671 3.28378 20.3825 3.01523C19.7979 2.74528 19.133 2.75629 18.5574 3.04476L17.3126 3.66707C16.9651 3.84089 16.8242 4.26332 16.998 4.6109C17.1725 4.95848 17.5949 5.09723 17.9418 4.92552L19.1866 4.30321C19.3775 4.20843 19.5994 4.20431 19.7952 4.2929C19.9903 4.3829 20.1318 4.5539 20.1812 4.7504L22.0451 12.7544C21.993 12.7505 21.943 12.7372 21.8903 12.7372H14.7711C14.1363 12.7372 13.5415 13.0189 13.1389 13.51C12.9594 13.7288 12.8364 13.9797 12.7574 14.2428C12.2575 14.1325 11.7426 14.1325 11.2427 14.2428C11.1636 13.9797 11.0407 13.7288 10.8611 13.51C10.4586 13.0189 9.8637 12.7372 9.22901 12.7372H2.1097C2.05701 12.7372 2.0069 12.7505 1.95492 12.7544L3.81604 4.76202C3.86821 4.5539 4.00977 4.38285 4.20482 4.29285C4.40061 4.20356 4.62111 4.20768 4.81344 4.30317L6.05816 4.92548C6.40574 5.09723 6.82752 4.95843 7.00198 4.61085C7.1758 4.26327 7.03494 3.84079 6.68736 3.66703L5.44269 3.04471C4.86772 2.75761 4.2021 2.74659 3.61752 3.01518C3.03295 3.28373 2.6077 3.79626 2.44902 4.43165L0.255326 13.8517C0.0245135 14.28 -0.0572363 14.7746 0.0406385 15.2617L0.658169 18.3508C0.985824 19.9892 2.4366 21.1782 4.10722 21.1782H7.23134C8.90192 21.1782 10.3527 19.9892 10.6804 18.3508L11.2053 15.725C11.7173 15.5157 12.2826 15.5157 12.7947 15.725L13.3196 18.3508C13.6473 19.9892 15.098 21.1782 16.7687 21.1782H19.8928C21.5633 21.1782 23.0142 19.9892 23.3418 18.3508L23.9594 15.2617C24.0572 14.7745 23.9755 14.2798 23.7446 13.8515Z" fill="white"/>
</svg>
