<svg width="20" height="20" viewBox="0 0 20 20" fill="none" xmlns="http://www.w3.org/2000/svg">
<g clip-path="url(#clip0_1_1169)">
<path d="M9.41397 19.8186V15.5669C8.34921 15.6075 7.29468 15.7576 6.29126 16.0065C6.45285 16.397 6.6297 16.771 6.8212 17.1241C7.58551 18.5324 8.53537 19.506 9.41397 19.8186Z" fill="black"/>
<path d="M13.1787 17.1241C13.3702 16.7711 13.5471 16.397 13.7086 16.0065C12.7052 15.7576 11.6507 15.6075 10.5859 15.5669V19.8186C11.4645 19.506 12.4144 18.5324 13.1787 17.1241Z" fill="black"/>
<path d="M9.41418 14.3942V10.4951H5.14111C5.19452 12.0173 5.45422 13.5307 5.8891 14.9008C7.02115 14.6104 8.21317 14.4369 9.41418 14.3942Z" fill="black"/>
<path d="M9.41418 9.32349V5.42441C8.21317 5.38168 7.02115 5.20819 5.8891 4.91797C5.45422 6.28806 5.19452 7.80127 5.14111 9.32349H9.41418Z" fill="black"/>
<path d="M14.842 3.48172C15.5548 3.24139 16.2304 2.94888 16.8518 2.60876C15.7608 1.58414 14.441 0.80014 12.978 0.34375C13.4163 0.838898 13.8308 1.43948 14.2086 2.13574C14.4407 2.56314 14.6519 3.01328 14.842 3.48172Z" fill="black"/>
<path d="M6.8212 2.69455C6.6297 3.04764 6.45285 3.42163 6.29126 3.8121C7.29468 4.06097 8.34921 4.21112 9.41397 4.25171V0C8.53537 0.312653 7.58551 1.28616 6.8212 2.69455Z" fill="black"/>
<path d="M10.5859 10.4951V14.3942C11.7871 14.4371 12.979 14.6104 14.111 14.9008C14.5459 13.5307 14.8056 12.0173 14.8592 10.4951H10.5859Z" fill="black"/>
<path d="M10.5859 5.42441V9.32349H14.859C14.8056 7.80127 14.5459 6.28806 14.111 4.91797C12.979 5.20819 11.7871 5.38168 10.5859 5.42441Z" fill="black"/>
<path d="M4.76089 15.2359C4.29245 13.761 4.02023 12.1467 3.9679 10.4951H0C0.128326 12.7092 0.978851 14.7323 2.31903 16.3324C3.06549 15.8992 3.8884 15.5314 4.76089 15.2359Z" fill="black"/>
<path d="M14.842 16.3369C14.6518 16.8054 14.4406 17.2555 14.2086 17.683C13.8308 18.3793 13.4163 18.9797 12.978 19.4749C14.441 19.0185 15.7608 18.2345 16.8519 17.2099C16.2304 16.8698 15.5548 16.5772 14.842 16.3369Z" fill="black"/>
<path d="M5.15817 16.3369C4.44543 16.5772 3.76978 16.8698 3.14844 17.2099C4.23944 18.2346 5.55917 19.0185 7.02219 19.475C6.58411 18.9797 6.16953 18.3793 5.79156 17.683C5.55948 17.2555 5.3483 16.8054 5.15817 16.3369Z" fill="black"/>
<path d="M15.239 4.58267C15.7075 6.05759 15.9797 7.67181 16.032 9.32343H19.9999C19.8716 7.10938 19.0211 5.08636 17.6809 3.48633C16.9344 3.91953 16.1115 4.28711 15.239 4.58267Z" fill="black"/>
<path d="M15.239 15.2359C16.1115 15.5314 16.9344 15.899 17.6809 16.3322C19.0211 14.7322 19.8716 12.709 19.9999 10.4951H16.032C15.9797 12.1467 15.7075 13.761 15.239 15.2359Z" fill="black"/>
<path d="M10.5859 0V4.25171C11.6507 4.21112 12.7052 4.06097 13.7086 3.81226C13.5471 3.42163 13.3704 3.04764 13.1787 2.69455C12.4144 1.28616 11.4645 0.312653 10.5859 0Z" fill="black"/>
<path d="M4.76089 4.58267C3.8884 4.28711 3.06549 3.91953 2.31903 3.48633C0.978699 5.08636 0.128326 7.10953 0 9.32343H3.9679C4.02023 7.67181 4.29245 6.05759 4.76089 4.58267Z" fill="black"/>
<path d="M5.15808 3.48172C5.34836 3.01328 5.55954 2.56314 5.79147 2.13574C6.16928 1.43933 6.58386 0.838898 7.02209 0.34375C5.55908 0.80014 4.23935 1.58414 3.14819 2.60876C3.76968 2.94888 4.44534 3.24139 5.15808 3.48172Z" fill="black"/>
</g>
<defs>
<clipPath id="clip0_1_1169">
<rect width="20" height="20" fill="white"/>
</clipPath>
</defs>
</svg>
