<svg width="19" height="19" viewBox="0 0 19 19" fill="none" xmlns="http://www.w3.org/2000/svg">
<path d="M9.5 10.0938C8.79541 10.0938 8.10663 9.88481 7.52078 9.49336C6.93493 9.10191 6.47832 8.54552 6.20868 7.89456C5.93904 7.2436 5.86849 6.5273 6.00595 5.83624C6.14341 5.14519 6.48271 4.51041 6.98093 4.01218C7.47916 3.51396 8.11393 3.17466 8.80499 3.0372C9.49605 2.89974 10.2123 2.97029 10.8633 3.23993C11.5143 3.50957 12.0707 3.96618 12.4621 4.55203C12.8536 5.13788 13.0625 5.82666 13.0625 6.53125C13.0625 7.47609 12.6872 8.38222 12.0191 9.05032C11.351 9.71842 10.4448 10.0938 9.5 10.0938V10.0938ZM9.5 4.15625C9.03027 4.15625 8.57109 4.29554 8.18052 4.55651C7.78996 4.81748 7.48555 5.1884 7.30579 5.62238C7.12603 6.05635 7.079 6.53389 7.17064 6.99459C7.26228 7.4553 7.48847 7.87848 7.82062 8.21063C8.15277 8.54278 8.57596 8.76898 9.03666 8.86062C9.49737 8.95226 9.9749 8.90522 10.4089 8.72547C10.8428 8.54571 11.2138 8.2413 11.4747 7.85073C11.7357 7.46016 11.875 7.00098 11.875 6.53125C11.875 5.90136 11.6248 5.29727 11.1794 4.85187C10.734 4.40647 10.1299 4.15625 9.5 4.15625Z" fill="white"/>
<path d="M9.49988 18.4063C8.18321 18.4055 6.8831 18.1127 5.69317 17.549C4.50325 16.9854 3.45309 16.1649 2.61832 15.1467L2.30957 14.7667L2.61832 14.3926C3.4538 13.3757 4.50426 12.5566 5.69415 11.9942C6.88404 11.4318 8.18378 11.1401 9.49988 11.1401C10.816 11.1401 12.1157 11.4318 13.3056 11.9942C14.4955 12.5566 15.546 13.3757 16.3814 14.3926L16.6902 14.7667L16.3814 15.1467C15.5467 16.1649 14.4965 16.9854 13.3066 17.549C12.1167 18.1127 10.8166 18.4055 9.49988 18.4063V18.4063ZM3.8652 14.7726C4.58734 15.5457 5.46068 16.162 6.43101 16.5835C7.40133 17.0049 8.44793 17.2223 9.50582 17.2223C10.5637 17.2223 11.6103 17.0049 12.5806 16.5835C13.551 16.162 14.4243 15.5457 15.1464 14.7726C14.4243 13.9995 13.551 13.3831 12.5806 12.9617C11.6103 12.5403 10.5637 12.3229 9.50582 12.3229C8.44793 12.3229 7.40133 12.5403 6.43101 12.9617C5.46068 13.3831 4.58734 13.9995 3.8652 14.7726V14.7726Z" fill="white"/>
<path d="M9.50009 18.4063C7.47703 18.4076 5.51379 17.7202 3.93349 16.457C2.3532 15.1939 1.25002 13.4305 0.805529 11.4568C0.361036 9.4832 0.601717 7.41706 1.48796 5.59844C2.3742 3.77983 3.85319 2.31714 5.68151 1.45109C7.50982 0.585049 9.57851 0.367268 11.5471 0.833594C13.5157 1.29992 15.2668 2.42256 16.5124 4.01675C17.7579 5.61094 18.4235 7.58167 18.3998 9.60459C18.376 11.6275 17.6643 13.5821 16.3816 15.1466C15.5469 16.1648 14.4967 16.9853 13.3068 17.5489C12.1169 18.1126 10.8168 18.4054 9.50009 18.4063V18.4063ZM9.50009 1.78126C7.97346 1.78126 6.48112 2.23395 5.21178 3.0821C3.94244 3.93025 2.95311 5.13575 2.36889 6.54617C1.78468 7.95659 1.63182 9.50857 1.92965 11.0059C2.22748 12.5032 2.96262 13.8785 4.04211 14.958C5.12159 16.0375 6.49694 16.7726 7.99423 17.0704C9.49152 17.3683 11.0435 17.2154 12.4539 16.6312C13.8643 16.047 15.0698 15.0577 15.918 13.7883C16.7661 12.519 17.2188 11.0266 17.2188 9.50001C17.2188 7.45287 16.4056 5.48957 14.9581 4.04203C13.5105 2.59448 11.5472 1.78126 9.50009 1.78126V1.78126Z" fill="white"/>
<path d="M3.07568 14.7726C3.07568 14.7726 9.05475 21.4523 15.1407 15.4376L15.9244 14.7726C15.9244 14.7726 10.8419 9.5001 5.68225 12.6648L3.07568 14.7726Z" fill="white"/>
<path d="M9.5 9.5C11.1396 9.5 12.4688 8.17085 12.4688 6.53125C12.4688 4.89165 11.1396 3.5625 9.5 3.5625C7.8604 3.5625 6.53125 4.89165 6.53125 6.53125C6.53125 8.17085 7.8604 9.5 9.5 9.5Z" fill="white"/>
</svg>
