<svg width="30" height="30" viewBox="0 0 30 30" fill="none" xmlns="http://www.w3.org/2000/svg">
<circle cx="15" cy="15" r="15" fill="white"/>
<g clip-path="url(#clip0_2_5537)">
<path d="M24.5133 16.3908C24.3087 16.3397 24.1041 16.3908 23.9251 16.5187C23.2602 17.0813 22.4929 17.5417 21.649 17.8486C20.8562 18.1555 19.9866 18.3089 19.066 18.3089C16.9944 18.3089 15.1019 17.465 13.7465 16.1095C12.391 14.7541 11.5471 12.8616 11.5471 10.79C11.5471 9.9205 11.7005 9.07654 11.9563 8.30931C12.2376 7.49092 12.6468 6.74926 13.1838 6.1099C13.414 5.82858 13.3629 5.41939 13.0815 5.18922C12.9025 5.06135 12.6979 5.0102 12.4933 5.06135C10.3195 5.64956 8.42698 6.95386 7.07153 8.69292C5.76723 10.4064 5 12.5291 5 14.8308C5 17.6184 6.12528 20.1503 7.96664 21.9916C9.808 23.833 12.3143 24.9583 15.1275 24.9583C17.4803 24.9583 19.6542 24.1399 21.3932 22.7845C23.1579 21.4034 24.4366 19.4342 24.9737 17.1836C25.076 16.8256 24.8714 16.4676 24.5133 16.3908Z" fill="black"/>
</g>
<defs>
<clipPath id="clip0_2_5537">
<rect width="20" height="20" fill="white" transform="translate(5 5)"/>
</clipPath>
</defs>
</svg>
