<svg width="20" height="20" viewBox="0 0 20 20" fill="none" xmlns="http://www.w3.org/2000/svg">
<path d="M12.0308 5.54367C10.6148 5.54307 9.46715 4.39543 9.46675 2.97957V0H1.53846C0.689904 0.00240385 0.00240385 0.689904 0 1.53846V18.4615C0.00240385 19.3101 0.689904 19.9976 1.53846 20H13.4718C14.3205 19.9976 15.0078 19.3101 15.0102 18.4615V5.54367H12.0308ZM2.77444 7.84615H8.31791C8.60116 7.84615 8.83073 8.07572 8.83073 8.35897C8.83073 8.64223 8.60116 8.87179 8.31791 8.87179H2.77444C2.49119 8.87179 2.26162 8.64223 2.26162 8.35897C2.26162 8.07572 2.49119 7.84615 2.77444 7.84615ZM12.7538 16.6308H2.77444C2.49119 16.6308 2.26162 16.4012 2.26162 16.118C2.26162 15.8347 2.49119 15.6052 2.77444 15.6052H12.7538C13.0371 15.6052 13.2666 15.8347 13.2666 16.118C13.2666 16.4012 13.0371 16.6308 12.7538 16.6308ZM12.7538 12.7488H2.77444C2.49119 12.7488 2.26162 12.519 2.26162 12.236C2.26162 11.9527 2.49119 11.7232 2.77444 11.7232H12.7538C13.0371 11.7232 13.2666 11.9527 13.2666 12.236C13.2666 12.519 13.0371 12.7488 12.7538 12.7488Z" fill="black"/>
<path d="M12.0309 4.51802H14.2975L10.4924 0.723145V2.97955C10.493 3.82891 11.1813 4.51722 12.0309 4.51802Z" fill="black"/>
</svg>
