<svg width="20" height="20" viewBox="0 0 20 20" fill="none" xmlns="http://www.w3.org/2000/svg">
<path d="M18.6945 8.59371L14.8013 12.3887L15.7207 17.7487C15.7607 17.9831 15.6645 18.22 15.472 18.36C15.3632 18.4393 15.2338 18.4793 15.1045 18.4793C15.0051 18.4793 14.9051 18.4556 14.8138 18.4075L10.0001 15.8768L5.18697 18.4068C4.97697 18.5181 4.72135 18.5 4.52885 18.3593C4.33635 18.2193 4.2401 17.9825 4.2801 17.7481L5.19947 12.3881L1.30572 8.59371C1.13572 8.42746 1.07385 8.17871 1.1476 7.95309C1.22135 7.72746 1.41697 7.56184 1.6526 7.52746L7.03322 6.74621L9.43947 1.86996C9.6501 1.44309 10.3501 1.44309 10.5607 1.86996L12.967 6.74621L18.3476 7.52746C18.5832 7.56184 18.7788 7.72684 18.8526 7.95309C18.9263 8.17934 18.8645 8.42684 18.6945 8.59371V8.59371Z" fill="black"/>
</svg>
