<svg width="25" height="21" viewBox="0 0 25 21" fill="none" xmlns="http://www.w3.org/2000/svg">
<path d="M24.6282 3.14208C23.7584 3.52749 22.824 3.78791 21.8417 3.90562C22.8552 3.29915 23.6135 2.34465 23.975 1.2202C23.0228 1.78582 21.9806 2.18395 20.8938 2.39729C20.1629 1.61694 19.1949 1.09971 18.14 0.925904C17.085 0.752099 16.0022 0.931443 15.0597 1.43609C14.1171 1.94074 13.3675 2.74245 12.9273 3.71677C12.487 4.69108 12.3808 5.78348 12.625 6.82437C10.6955 6.72749 8.80798 6.22598 7.08485 5.35239C5.36172 4.47881 3.84153 3.25266 2.62295 1.75353C2.20628 2.47229 1.9667 3.30562 1.9667 4.19312C1.96623 4.99207 2.16298 5.77879 2.53949 6.48346C2.916 7.18814 3.46062 7.78899 4.12503 8.2327C3.35449 8.20818 2.60094 7.99998 1.92712 7.62541V7.68791C1.92704 8.80847 2.31465 9.89455 3.02418 10.7619C3.73371 11.6292 4.72146 12.2243 5.81982 12.4462C5.10502 12.6397 4.35559 12.6682 3.62816 12.5296C3.93805 13.4938 4.54169 14.3369 5.35458 14.941C6.16747 15.545 7.1489 15.8798 8.16149 15.8983C6.44257 17.2477 4.31971 17.9797 2.13441 17.9765C1.7473 17.9766 1.36053 17.954 0.976074 17.9087C3.19428 19.335 5.77643 20.0919 8.41357 20.089C17.3407 20.089 22.2209 12.6952 22.2209 6.2827C22.2209 6.07437 22.2157 5.86395 22.2063 5.65562C23.1555 4.96913 23.9749 4.11905 24.6261 3.1452L24.6282 3.14208Z" fill="white"/>
</svg>
